# xmcd
#
# Track frame offsets:
#	150
#	12575
#	24120
#	37400
#	48722
#	61140
#	76375
#	92990
#	104345
#	115500
#	127317
#	139505
#	153732
#	169482
#
# Disc length: 2426
#
# Revision: 1
# Processed by: cddbd v1.5.1PL0 Copyright (c) Steve Scherf et al.
# Submitted via: Grip 2.96
# Normalized: r0:DSETVAR1
#
DISCID=c409780e
DTITLE=Various Artist - The Essential Country Collection - cd1
DYEAR=1900
DGENRE=
TTITLE0=Charlie Rich - Behind closed Doors
TTITLE1=Patsy Cline - Walkin' after Midnight
TTITLE2=Lynn Anderson - Rose Garden
TTITLE3=Don Gibson - Sea of Heartbreak
TTITLE4=Bobby Bare - 500 Miles away from Home
TTITLE5=Billie Jo Spears - Blanket on the Ground
TTITLE6=Lee Greenwood - Ring on her Finger, Time on her Hands
TTITLE7=The Kendalls - Heaven's just a sin away
TTITLE8=Conway Twitty - Hello Darlin'
TTITLE9=Skeeter Davis - The end of the World
TTITLE10=Merle Haggard - Okie from Muskogee
TTITLE11=Bobby Bare - All American Boy
TTITLE12=The Marshall Tucker Band - Heard it in a love song
TTITLE13=Lynn Anderson - Stand by your Man
EXTD=
EXTT0=
EXTT1=
EXTT2=
EXTT3=
EXTT4=
EXTT5=
EXTT6=
EXTT7=
EXTT8=
EXTT9=
EXTT10=
EXTT11=
EXTT12=
EXTT13=
PLAYORDER=
